<svg xmlns="http://www.w3.org/2000/svg" xmlns:xlink="http://www.w3.org/1999/xlink" width="60" zoomAndPan="magnify" viewBox="0 0 45 30.000001" height="40" preserveAspectRatio="xMidYMid meet" version="1.0"><defs><g/><clipPath id="4206b410d0"><path d="M 0.726562 10 L 44.273438 10 L 44.273438 18 L 0.726562 18 Z M 0.726562 10 " clip-rule="nonzero"/></clipPath></defs><g clip-path="url(#4206b410d0)"><g fill="#ffffff" fill-opacity="1"><g transform="translate(0.173227, 17.070628)"><g><path d="M 3.4375 0.09375 C 2.894531 0.09375 2.410156 -0.03125 1.984375 -0.28125 C 1.554688 -0.53125 1.222656 -0.894531 0.984375 -1.375 C 0.742188 -1.851562 0.625 -2.429688 0.625 -3.109375 C 0.625 -3.773438 0.742188 -4.347656 0.984375 -4.828125 C 1.222656 -5.304688 1.554688 -5.671875 1.984375 -5.921875 C 2.410156 -6.171875 2.894531 -6.296875 3.4375 -6.296875 C 4.019531 -6.296875 4.5 -6.1875 4.875 -5.96875 C 5.257812 -5.75 5.539062 -5.421875 5.71875 -4.984375 L 5.25 -4.671875 L 5.140625 -4.671875 C 4.972656 -5.023438 4.753906 -5.273438 4.484375 -5.421875 C 4.210938 -5.566406 3.863281 -5.640625 3.4375 -5.640625 C 3.039062 -5.640625 2.691406 -5.550781 2.390625 -5.375 C 2.085938 -5.207031 1.847656 -4.929688 1.671875 -4.546875 C 1.492188 -4.171875 1.40625 -3.691406 1.40625 -3.109375 C 1.40625 -2.515625 1.492188 -2.03125 1.671875 -1.65625 C 1.847656 -1.28125 2.085938 -1.003906 2.390625 -0.828125 C 2.691406 -0.648438 3.039062 -0.5625 3.4375 -0.5625 C 3.882812 -0.5625 4.25 -0.660156 4.53125 -0.859375 C 4.820312 -1.066406 5.035156 -1.398438 5.171875 -1.859375 L 5.28125 -1.859375 L 5.765625 -1.609375 C 5.617188 -1.066406 5.347656 -0.644531 4.953125 -0.34375 C 4.554688 -0.0507812 4.050781 0.09375 3.4375 0.09375 Z M 3.4375 0.09375 "/></g></g><g transform="translate(6.263828, 17.070628)"><g><path d="M 0.8125 0 L 0.8125 -4.6875 L 1.46875 -4.6875 L 1.46875 -3.953125 L 1.5625 -3.9375 C 1.78125 -4.46875 2.191406 -4.734375 2.796875 -4.734375 C 3.117188 -4.734375 3.359375 -4.675781 3.515625 -4.5625 L 3.328125 -3.96875 L 3.25 -3.953125 C 3.070312 -4.035156 2.878906 -4.078125 2.671875 -4.078125 C 2.296875 -4.078125 2.007812 -3.9375 1.8125 -3.65625 C 1.613281 -3.382812 1.515625 -2.929688 1.515625 -2.296875 L 1.515625 0 Z M 0.8125 0 "/></g></g><g transform="translate(9.882512, 17.070628)"><g><path d="M 4.46875 -2.1875 L 1.25 -2.1875 C 1.269531 -1.613281 1.40625 -1.191406 1.65625 -0.921875 C 1.90625 -0.660156 2.253906 -0.53125 2.703125 -0.53125 C 3.035156 -0.53125 3.300781 -0.585938 3.5 -0.703125 C 3.707031 -0.828125 3.867188 -1.015625 3.984375 -1.265625 L 4.078125 -1.265625 L 4.53125 -1 C 4.394531 -0.664062 4.175781 -0.398438 3.875 -0.203125 C 3.570312 -0.00390625 3.179688 0.09375 2.703125 0.09375 C 2.242188 0.09375 1.851562 0.00390625 1.53125 -0.171875 C 1.207031 -0.359375 0.957031 -0.628906 0.78125 -0.984375 C 0.601562 -1.347656 0.515625 -1.800781 0.515625 -2.34375 C 0.515625 -2.875 0.609375 -3.320312 0.796875 -3.6875 C 0.984375 -4.050781 1.234375 -4.320312 1.546875 -4.5 C 1.867188 -4.6875 2.238281 -4.78125 2.65625 -4.78125 C 3.257812 -4.78125 3.726562 -4.609375 4.0625 -4.265625 C 4.394531 -3.929688 4.566406 -3.429688 4.578125 -2.765625 C 4.578125 -2.503906 4.570312 -2.328125 4.5625 -2.234375 Z M 3.890625 -2.765625 C 3.878906 -3.265625 3.769531 -3.625 3.5625 -3.84375 C 3.351562 -4.070312 3.050781 -4.1875 2.65625 -4.1875 C 2.25 -4.1875 1.925781 -4.070312 1.6875 -3.84375 C 1.457031 -3.613281 1.316406 -3.253906 1.265625 -2.765625 Z M 3.890625 -2.765625 "/></g></g><g transform="translate(14.877315, 17.070628)"><g><path d="M 2.4375 0.09375 C 2.050781 0.09375 1.710938 0.00390625 1.421875 -0.171875 C 1.140625 -0.359375 0.914062 -0.628906 0.75 -0.984375 C 0.59375 -1.347656 0.515625 -1.800781 0.515625 -2.34375 C 0.515625 -2.875 0.597656 -3.320312 0.765625 -3.6875 C 0.941406 -4.050781 1.175781 -4.320312 1.46875 -4.5 C 1.769531 -4.6875 2.117188 -4.78125 2.515625 -4.78125 C 2.828125 -4.78125 3.109375 -4.71875 3.359375 -4.59375 C 3.609375 -4.476562 3.820312 -4.285156 4 -4.015625 L 4.078125 -4.03125 L 4.078125 -6.5625 L 4.78125 -6.5625 L 4.78125 0 L 4.078125 0 L 4.078125 -0.6875 L 4 -0.703125 C 3.84375 -0.472656 3.632812 -0.28125 3.375 -0.125 C 3.113281 0.0195312 2.800781 0.09375 2.4375 0.09375 Z M 2.640625 -0.53125 C 3.078125 -0.53125 3.425781 -0.675781 3.6875 -0.96875 C 3.945312 -1.269531 4.078125 -1.726562 4.078125 -2.34375 C 4.078125 -2.957031 3.945312 -3.410156 3.6875 -3.703125 C 3.425781 -4.003906 3.078125 -4.15625 2.640625 -4.15625 C 2.191406 -4.15625 1.84375 -4.007812 1.59375 -3.71875 C 1.351562 -3.425781 1.234375 -2.96875 1.234375 -2.34375 C 1.234375 -1.132812 1.703125 -0.53125 2.640625 -0.53125 Z M 2.640625 -0.53125 "/></g></g><g transform="translate(20.470984, 17.070628)"><g><path d="M 1.171875 -5.59375 C 1.015625 -5.59375 0.890625 -5.640625 0.796875 -5.734375 C 0.710938 -5.828125 0.671875 -5.941406 0.671875 -6.078125 C 0.671875 -6.222656 0.710938 -6.335938 0.796875 -6.421875 C 0.890625 -6.515625 1.015625 -6.5625 1.171875 -6.5625 C 1.316406 -6.5625 1.429688 -6.515625 1.515625 -6.421875 C 1.609375 -6.335938 1.65625 -6.222656 1.65625 -6.078125 C 1.65625 -5.941406 1.609375 -5.828125 1.515625 -5.734375 C 1.429688 -5.640625 1.316406 -5.59375 1.171875 -5.59375 Z M 0.8125 0 L 0.8125 -4.6875 L 1.515625 -4.6875 L 1.515625 0 Z M 0.8125 0 "/></g></g><g transform="translate(22.794247, 17.070628)"><g><path d="M 3.171875 -0.75 L 3.390625 -0.25 C 3.273438 -0.132812 3.128906 -0.0507812 2.953125 0 C 2.773438 0.0625 2.582031 0.09375 2.375 0.09375 C 1.476562 0.09375 1.03125 -0.359375 1.03125 -1.265625 L 1.03125 -4.125 L 0.21875 -4.125 L 0.21875 -4.6875 L 1.03125 -4.6875 L 1.03125 -5.6875 L 1.71875 -5.796875 L 1.71875 -4.6875 L 3.234375 -4.6875 L 3.234375 -4.125 L 1.71875 -4.125 L 1.71875 -1.34375 C 1.71875 -0.800781 1.953125 -0.53125 2.421875 -0.53125 C 2.679688 -0.53125 2.898438 -0.601562 3.078125 -0.75 Z M 3.171875 -0.75 "/></g></g><g transform="translate(26.361963, 17.070628)"><g><path d="M 4.84375 -6.21875 L 4.84375 -5.59375 L 2.90625 -5.59375 L 2.90625 0 L 2.171875 0 L 2.171875 -5.59375 L 0.234375 -5.59375 L 0.234375 -6.21875 Z M 4.84375 -6.21875 "/></g></g><g transform="translate(31.433217, 17.070628)"><g><path d="M 0.8125 0 L 0.8125 -4.6875 L 1.46875 -4.6875 L 1.46875 -3.953125 L 1.5625 -3.9375 C 1.78125 -4.46875 2.191406 -4.734375 2.796875 -4.734375 C 3.117188 -4.734375 3.359375 -4.675781 3.515625 -4.5625 L 3.328125 -3.96875 L 3.25 -3.953125 C 3.070312 -4.035156 2.878906 -4.078125 2.671875 -4.078125 C 2.296875 -4.078125 2.007812 -3.9375 1.8125 -3.65625 C 1.613281 -3.382812 1.515625 -2.929688 1.515625 -2.296875 L 1.515625 0 Z M 0.8125 0 "/></g></g><g transform="translate(35.0519, 17.070628)"><g><path d="M 1.9375 0.09375 C 1.46875 0.09375 1.101562 -0.0234375 0.84375 -0.265625 C 0.59375 -0.515625 0.46875 -0.859375 0.46875 -1.296875 C 0.46875 -1.578125 0.523438 -1.8125 0.640625 -2 C 0.753906 -2.195312 0.929688 -2.351562 1.171875 -2.46875 C 1.410156 -2.59375 1.722656 -2.6875 2.109375 -2.75 C 2.453125 -2.8125 2.710938 -2.875 2.890625 -2.9375 C 3.066406 -3.007812 3.179688 -3.085938 3.234375 -3.171875 C 3.296875 -3.265625 3.328125 -3.378906 3.328125 -3.515625 C 3.328125 -3.722656 3.253906 -3.882812 3.109375 -4 C 2.960938 -4.113281 2.726562 -4.171875 2.40625 -4.171875 C 2.101562 -4.171875 1.84375 -4.113281 1.625 -4 C 1.414062 -3.882812 1.21875 -3.707031 1.03125 -3.46875 L 0.953125 -3.46875 L 0.609375 -3.953125 C 0.804688 -4.203125 1.054688 -4.398438 1.359375 -4.546875 C 1.671875 -4.703125 2.019531 -4.78125 2.40625 -4.78125 C 2.96875 -4.78125 3.378906 -4.65625 3.640625 -4.40625 C 3.898438 -4.164062 4.03125 -3.832031 4.03125 -3.40625 L 4.03125 -0.921875 C 4.03125 -0.660156 4.140625 -0.53125 4.359375 -0.53125 C 4.429688 -0.53125 4.503906 -0.539062 4.578125 -0.5625 L 4.625 -0.546875 L 4.71875 -0.078125 C 4.664062 -0.0351562 4.597656 -0.0078125 4.515625 0 C 4.429688 0.0195312 4.34375 0.03125 4.25 0.03125 C 3.988281 0.03125 3.789062 -0.0234375 3.65625 -0.140625 C 3.53125 -0.253906 3.453125 -0.421875 3.421875 -0.640625 L 3.328125 -0.640625 C 3.191406 -0.398438 3.007812 -0.21875 2.78125 -0.09375 C 2.5625 0.03125 2.28125 0.09375 1.9375 0.09375 Z M 2.09375 -0.46875 C 2.351562 -0.46875 2.578125 -0.523438 2.765625 -0.640625 C 2.953125 -0.765625 3.097656 -0.9375 3.203125 -1.15625 C 3.304688 -1.375 3.359375 -1.625 3.359375 -1.90625 L 3.359375 -2.5 L 3.28125 -2.515625 C 3.175781 -2.441406 3.046875 -2.378906 2.890625 -2.328125 C 2.742188 -2.285156 2.535156 -2.242188 2.265625 -2.203125 C 1.992188 -2.160156 1.773438 -2.101562 1.609375 -2.03125 C 1.453125 -1.957031 1.335938 -1.859375 1.265625 -1.734375 C 1.203125 -1.617188 1.171875 -1.472656 1.171875 -1.296875 C 1.171875 -1.023438 1.25 -0.816406 1.40625 -0.671875 C 1.570312 -0.535156 1.800781 -0.46875 2.09375 -0.46875 Z M 2.09375 -0.46875 "/></g></g><g transform="translate(39.898048, 17.070628)"><g><path d="M 0.984375 0 L 0.21875 0 L 1.65625 -2.4375 L 0.28125 -4.6875 L 1.0625 -4.6875 L 2.15625 -2.890625 L 2.25 -2.890625 L 3.328125 -4.6875 L 4.078125 -4.6875 L 2.734375 -2.4375 L 4.15625 0 L 3.375 0 L 2.21875 -1.984375 L 2.125 -1.984375 Z M 0.984375 0 "/></g></g></g></g></svg>