<svg xmlns="http://www.w3.org/2000/svg" xmlns:xlink="http://www.w3.org/1999/xlink" width="60" zoomAndPan="magnify" viewBox="0 0 45 30.000001" height="40" preserveAspectRatio="xMidYMid meet" version="1.0"><defs><g/><clipPath id="bc51926634"><path d="M 40 13 L 44.273438 13 L 44.273438 18 L 40 18 Z M 40 13 " clip-rule="nonzero"/></clipPath></defs><g fill="#407aad" fill-opacity="1"><g transform="translate(0.728433, 17.837536)"><g><path d="M 3.390625 0.09375 C 2.847656 0.09375 2.367188 -0.03125 1.953125 -0.28125 C 1.535156 -0.53125 1.207031 -0.890625 0.96875 -1.359375 C 0.726562 -1.835938 0.609375 -2.40625 0.609375 -3.0625 C 0.609375 -3.726562 0.726562 -4.296875 0.96875 -4.765625 C 1.207031 -5.242188 1.535156 -5.601562 1.953125 -5.84375 C 2.367188 -6.09375 2.847656 -6.21875 3.390625 -6.21875 C 3.960938 -6.21875 4.4375 -6.109375 4.8125 -5.890625 C 5.195312 -5.679688 5.472656 -5.359375 5.640625 -4.921875 L 5.1875 -4.609375 L 5.078125 -4.609375 C 4.910156 -4.960938 4.691406 -5.210938 4.421875 -5.359375 C 4.148438 -5.503906 3.804688 -5.578125 3.390625 -5.578125 C 3.003906 -5.578125 2.660156 -5.488281 2.359375 -5.3125 C 2.054688 -5.144531 1.816406 -4.875 1.640625 -4.5 C 1.472656 -4.125 1.390625 -3.644531 1.390625 -3.0625 C 1.390625 -2.476562 1.472656 -2 1.640625 -1.625 C 1.816406 -1.257812 2.054688 -0.988281 2.359375 -0.8125 C 2.660156 -0.644531 3.003906 -0.5625 3.390625 -0.5625 C 3.835938 -0.5625 4.203125 -0.660156 4.484375 -0.859375 C 4.765625 -1.054688 4.972656 -1.378906 5.109375 -1.828125 L 5.21875 -1.828125 L 5.703125 -1.59375 C 5.554688 -1.050781 5.285156 -0.632812 4.890625 -0.34375 C 4.492188 -0.0507812 3.992188 0.09375 3.390625 0.09375 Z M 3.390625 0.09375 "/></g></g></g><g fill="#407aad" fill-opacity="1"><g transform="translate(6.743062, 17.837536)"><g><path d="M 0.8125 0 L 0.8125 -4.625 L 1.453125 -4.625 L 1.453125 -3.90625 L 1.546875 -3.875 C 1.765625 -4.40625 2.171875 -4.671875 2.765625 -4.671875 C 3.078125 -4.671875 3.3125 -4.613281 3.46875 -4.5 L 3.296875 -3.921875 L 3.203125 -3.90625 C 3.035156 -3.988281 2.847656 -4.03125 2.640625 -4.03125 C 2.265625 -4.03125 1.976562 -3.890625 1.78125 -3.609375 C 1.582031 -3.335938 1.484375 -2.890625 1.484375 -2.265625 L 1.484375 0 Z M 0.8125 0 "/></g></g></g><g fill="#407aad" fill-opacity="1"><g transform="translate(10.316607, 17.837536)"><g><path d="M 4.40625 -2.15625 L 1.234375 -2.15625 C 1.253906 -1.59375 1.390625 -1.179688 1.640625 -0.921875 C 1.890625 -0.660156 2.234375 -0.53125 2.671875 -0.53125 C 2.992188 -0.53125 3.253906 -0.585938 3.453125 -0.703125 C 3.660156 -0.816406 3.820312 -1 3.9375 -1.25 L 4.03125 -1.25 L 4.46875 -0.984375 C 4.332031 -0.648438 4.113281 -0.382812 3.8125 -0.1875 C 3.519531 0 3.140625 0.09375 2.671875 0.09375 C 2.222656 0.09375 1.835938 0.00390625 1.515625 -0.171875 C 1.191406 -0.347656 0.941406 -0.613281 0.765625 -0.96875 C 0.585938 -1.332031 0.5 -1.78125 0.5 -2.3125 C 0.5 -2.832031 0.59375 -3.273438 0.78125 -3.640625 C 0.96875 -4.003906 1.21875 -4.273438 1.53125 -4.453125 C 1.851562 -4.628906 2.21875 -4.71875 2.625 -4.71875 C 3.21875 -4.71875 3.679688 -4.550781 4.015625 -4.21875 C 4.347656 -3.882812 4.515625 -3.390625 4.515625 -2.734375 C 4.515625 -2.472656 4.507812 -2.296875 4.5 -2.203125 Z M 3.84375 -2.734375 C 3.832031 -3.222656 3.722656 -3.578125 3.515625 -3.796875 C 3.304688 -4.023438 3.007812 -4.140625 2.625 -4.140625 C 2.21875 -4.140625 1.898438 -4.023438 1.671875 -3.796875 C 1.441406 -3.578125 1.300781 -3.222656 1.25 -2.734375 Z M 3.84375 -2.734375 "/></g></g></g><g fill="#407aad" fill-opacity="1"><g transform="translate(15.249105, 17.837536)"><g><path d="M 2.40625 0.09375 C 2.03125 0.09375 1.695312 0.00390625 1.40625 -0.171875 C 1.125 -0.347656 0.898438 -0.613281 0.734375 -0.96875 C 0.578125 -1.332031 0.5 -1.78125 0.5 -2.3125 C 0.5 -2.84375 0.582031 -3.285156 0.75 -3.640625 C 0.925781 -4.003906 1.160156 -4.273438 1.453125 -4.453125 C 1.742188 -4.628906 2.085938 -4.71875 2.484375 -4.71875 C 2.785156 -4.71875 3.0625 -4.660156 3.3125 -4.546875 C 3.5625 -4.429688 3.769531 -4.238281 3.9375 -3.96875 L 4.03125 -3.984375 L 4.03125 -6.484375 L 4.71875 -6.484375 L 4.71875 0 L 4.03125 0 L 4.03125 -0.671875 L 3.9375 -0.6875 C 3.789062 -0.457031 3.585938 -0.269531 3.328125 -0.125 C 3.066406 0.0195312 2.757812 0.09375 2.40625 0.09375 Z M 2.609375 -0.53125 C 3.046875 -0.53125 3.390625 -0.675781 3.640625 -0.96875 C 3.898438 -1.257812 4.03125 -1.707031 4.03125 -2.3125 C 4.03125 -2.914062 3.898438 -3.363281 3.640625 -3.65625 C 3.390625 -3.957031 3.046875 -4.109375 2.609375 -4.109375 C 2.171875 -4.109375 1.828125 -3.960938 1.578125 -3.671875 C 1.335938 -3.378906 1.21875 -2.925781 1.21875 -2.3125 C 1.21875 -1.125 1.679688 -0.53125 2.609375 -0.53125 Z M 2.609375 -0.53125 "/></g></g></g><g fill="#407aad" fill-opacity="1"><g transform="translate(20.773, 17.837536)"><g><path d="M 1.15625 -5.515625 C 1.007812 -5.515625 0.890625 -5.5625 0.796875 -5.65625 C 0.703125 -5.75 0.65625 -5.863281 0.65625 -6 C 0.65625 -6.144531 0.703125 -6.257812 0.796875 -6.34375 C 0.890625 -6.4375 1.007812 -6.484375 1.15625 -6.484375 C 1.300781 -6.484375 1.414062 -6.4375 1.5 -6.34375 C 1.59375 -6.257812 1.640625 -6.144531 1.640625 -6 C 1.640625 -5.863281 1.59375 -5.75 1.5 -5.65625 C 1.414062 -5.5625 1.300781 -5.515625 1.15625 -5.515625 Z M 0.8125 0 L 0.8125 -4.625 L 1.484375 -4.625 L 1.484375 0 Z M 0.8125 0 "/></g></g></g><g fill="#407aad" fill-opacity="1"><g transform="translate(23.067283, 17.837536)"><g><path d="M 3.125 -0.734375 L 3.34375 -0.25 C 3.238281 -0.132812 3.097656 -0.0507812 2.921875 0 C 2.742188 0.0625 2.550781 0.09375 2.34375 0.09375 C 1.457031 0.09375 1.015625 -0.351562 1.015625 -1.25 L 1.015625 -4.0625 L 0.203125 -4.0625 L 0.203125 -4.625 L 1.015625 -4.625 L 1.015625 -5.609375 L 1.703125 -5.71875 L 1.703125 -4.625 L 3.1875 -4.625 L 3.1875 -4.0625 L 1.703125 -4.0625 L 1.703125 -1.328125 C 1.703125 -0.796875 1.929688 -0.53125 2.390625 -0.53125 C 2.640625 -0.53125 2.859375 -0.597656 3.046875 -0.734375 Z M 3.125 -0.734375 "/></g></g></g><g fill="#478887" fill-opacity="1"><g transform="translate(26.591505, 17.837536)"><g><path d="M 4.78125 -6.140625 L 4.78125 -5.515625 L 2.859375 -5.515625 L 2.859375 0 L 2.15625 0 L 2.15625 -5.515625 L 0.234375 -5.515625 L 0.234375 -6.140625 Z M 4.78125 -6.140625 "/></g></g></g><g fill="#478887" fill-opacity="1"><g transform="translate(31.599501, 17.837536)"><g><path d="M 0.8125 0 L 0.8125 -4.625 L 1.453125 -4.625 L 1.453125 -3.90625 L 1.546875 -3.875 C 1.765625 -4.40625 2.171875 -4.671875 2.765625 -4.671875 C 3.078125 -4.671875 3.3125 -4.613281 3.46875 -4.5 L 3.296875 -3.921875 L 3.203125 -3.90625 C 3.035156 -3.988281 2.847656 -4.03125 2.640625 -4.03125 C 2.265625 -4.03125 1.976562 -3.890625 1.78125 -3.609375 C 1.582031 -3.335938 1.484375 -2.890625 1.484375 -2.265625 L 1.484375 0 Z M 0.8125 0 "/></g></g></g><g fill="#478887" fill-opacity="1"><g transform="translate(35.173046, 17.837536)"><g><path d="M 1.90625 0.09375 C 1.445312 0.09375 1.085938 -0.0234375 0.828125 -0.265625 C 0.578125 -0.503906 0.453125 -0.84375 0.453125 -1.28125 C 0.453125 -1.5625 0.507812 -1.796875 0.625 -1.984375 C 0.738281 -2.171875 0.914062 -2.320312 1.15625 -2.4375 C 1.394531 -2.5625 1.703125 -2.65625 2.078125 -2.71875 C 2.421875 -2.769531 2.675781 -2.832031 2.84375 -2.90625 C 3.019531 -2.976562 3.140625 -3.054688 3.203125 -3.140625 C 3.265625 -3.222656 3.296875 -3.332031 3.296875 -3.46875 C 3.296875 -3.675781 3.222656 -3.835938 3.078125 -3.953125 C 2.929688 -4.066406 2.703125 -4.125 2.390625 -4.125 C 2.085938 -4.125 1.828125 -4.0625 1.609375 -3.9375 C 1.398438 -3.820312 1.207031 -3.648438 1.03125 -3.421875 L 0.9375 -3.421875 L 0.609375 -3.90625 C 0.796875 -4.15625 1.039062 -4.351562 1.34375 -4.5 C 1.644531 -4.644531 1.992188 -4.71875 2.390625 -4.71875 C 2.929688 -4.71875 3.332031 -4.597656 3.59375 -4.359375 C 3.851562 -4.117188 3.984375 -3.785156 3.984375 -3.359375 L 3.984375 -0.90625 C 3.984375 -0.65625 4.09375 -0.53125 4.3125 -0.53125 C 4.382812 -0.53125 4.453125 -0.539062 4.515625 -0.5625 L 4.578125 -0.546875 L 4.65625 -0.078125 C 4.601562 -0.0351562 4.535156 -0.0078125 4.453125 0 C 4.367188 0.0195312 4.285156 0.03125 4.203125 0.03125 C 3.941406 0.03125 3.742188 -0.0195312 3.609375 -0.125 C 3.484375 -0.238281 3.40625 -0.40625 3.375 -0.625 L 3.28125 -0.640625 C 3.15625 -0.390625 2.976562 -0.203125 2.75 -0.078125 C 2.53125 0.0351562 2.25 0.09375 1.90625 0.09375 Z M 2.0625 -0.453125 C 2.320312 -0.453125 2.546875 -0.507812 2.734375 -0.625 C 2.921875 -0.75 3.0625 -0.914062 3.15625 -1.125 C 3.257812 -1.34375 3.3125 -1.597656 3.3125 -1.890625 L 3.3125 -2.46875 L 3.234375 -2.484375 C 3.128906 -2.410156 3.003906 -2.347656 2.859375 -2.296875 C 2.710938 -2.253906 2.503906 -2.210938 2.234375 -2.171875 C 1.960938 -2.140625 1.75 -2.082031 1.59375 -2 C 1.4375 -1.925781 1.320312 -1.832031 1.25 -1.71875 C 1.1875 -1.601562 1.15625 -1.457031 1.15625 -1.28125 C 1.15625 -1.007812 1.234375 -0.800781 1.390625 -0.65625 C 1.554688 -0.519531 1.78125 -0.453125 2.0625 -0.453125 Z M 2.0625 -0.453125 "/></g></g></g><g clip-path="url(#bc51926634)"><g fill="#478887" fill-opacity="1"><g transform="translate(39.958744, 17.837536)"><g><path d="M 0.96875 0 L 0.203125 0 L 1.640625 -2.40625 L 0.28125 -4.625 L 1.046875 -4.625 L 2.125 -2.84375 L 2.21875 -2.84375 L 3.296875 -4.625 L 4.03125 -4.625 L 2.703125 -2.40625 L 4.109375 0 L 3.328125 0 L 2.1875 -1.953125 L 2.09375 -1.953125 Z M 0.96875 0 "/></g></g></g></g></svg>